<svg xmlns="http://www.w3.org/2000/svg" width="28" height="28" viewBox="0 0 28 28">
  <g fill="#FFF" fill-rule="evenodd" transform="translate(2 6)">
    <path d="M18.5655326 11.8153448L17.2604712 13.1046521C17.0141375 11.6675966 16.1755502 10.429296 15.00113 9.64281867L15.0008627 7.83954378C16.67111 8.6297141 17.9692843 10.0634946 18.5655326 11.8153448zM8.99963449 7.8593399L9.00038225 9.67019131C7.84750976 10.4576427 7.02547367 11.6834643 6.78172031 13.103445L5.47686141 11.8141418C6.06834592 10.0773686 7.34976682 8.65333917 8.99963449 7.8593399zM21.3438662 9.07152441L20.1614033 10.2411734C19.1459859 8.09478741 17.2846831 6.41641849 15.0006788 5.62371784L15 4C15 3.9926362 14.9999602 3.9852817 14.9998808 3.9779367 17.7413319 4.77040303 20.0202292 6.63079933 21.3438662 9.07152441zM3.8811517 10.2399676L2.69811822 9.07152441C4.01499792 6.64325958 6.27740923 4.78941333 8.99978349 3.98920601L9.00047533 5.6379988C6.73555113 6.43630925 4.89063636 8.10696201 3.8811517 10.2399676zM12-7.01660952e-14C17.0420774-7.01660952e-14 21.4717666 2.58766618 24 6.49078416L22.8464581 7.62924463C20.6358059 3.9974457 16.6054489 1.56737589 12 1.56737589 7.39455107 1.56737589 3.36419411 3.9974457 1.15354188 7.62924463L3.55271368e-14 6.49078416C2.52823339 2.58766618 6.9579226-7.01660952e-14 12-7.01660952e-14zM12.0209922 17C12.9874905 17 13.7709922 16.2164983 13.7709922 15.25 13.7709922 14.2835017 12.9874905 13.5 12.0209922 13.5 11.0544939 13.5 10.2709922 14.2835017 10.2709922 15.25 10.2709922 16.2164983 11.0544939 17 12.0209922 17z"/>
    <rect width="2" height="9" x="11" y="3" rx="1"/>
  </g>
</svg>
