<svg xmlns="http://www.w3.org/2000/svg" width="28" height="28" viewBox="0 0 28 28">
  <path fill="#FFF" d="M14.021197,5.98875036 C9.40926541,5.98875036 5.52157184,7.95222629 2.41530176,11.8350378 L1.96182272,12.4018828 L12.0496608,22.2183795 C13.1352926,23.2748102 14.8642354,23.2762908 15.9516751,22.2217211 L26.076306,12.4031258 L25.6225833,11.8353657 C22.5194852,7.95234362 18.6332486,5.98875036 14.021197,5.98875036 Z M14.3932942,7.59352782 C17.9678388,7.685794 21.0180205,9.11484466 23.582604,11.9105456 L23.908,12.276 L14.8377966,21.0731242 L14.7339223,21.1630451 C14.2673041,21.5226852 13.597542,21.4921084 13.1655048,21.0716921 L4.128,12.278 L4.18240001,12.2156066 C6.89287484,9.11883862 10.156672,7.58875036 14.021197,7.58875036 L14.3932942,7.59352782 Z"/>
</svg>
