<svg xmlns="http://www.w3.org/2000/svg" width="28" height="28" viewBox="0 0 28 28">
  <g fill="#FFF" fill-rule="evenodd" transform="translate(2 6)">
    <path d="M12.0209922,10.9716312 C13.7077327,10.9716312 15.0751061,12.3211275 15.0751061,13.9858156 C15.0751061,15.6505037 13.7077327,17 12.0209922,17 C10.3342517,17 8.96687834,15.6505037 8.96687834,13.9858156 C8.96687834,12.3211275 10.3342517,10.9716312 12.0209922,10.9716312 Z M12.0209922,7.17375887 C15.0641059,7.17375887 17.6472579,9.1173417 18.5655326,11.8153448 L17.2604712,13.1046521 C16.8358725,10.6276382 14.6516591,8.74113475 12.0209922,8.74113475 C9.39075271,8.74113475 7.20682159,10.6270253 6.78172031,13.103445 L5.47686141,11.8141418 C6.39549443,9.11676399 8.97833087,7.17375887 12.0209922,7.17375887 Z"/>
    <path fill-opacity=".3" d="M12.0209922,3.55673759 C16.0566609,3.55673759 19.5639468,5.78943597 21.3438662,9.07152441 L20.1614033,10.2411734 C18.7314689,7.21858286 15.6240655,5.12411348 12.0209922,5.12411348 C8.41839804,5.12411348 5.31134196,7.21802586 3.8811517,10.2399676 L2.69811822,9.07152441 C4.4780376,5.78943597 7.98532354,3.55673759 12.0209922,3.55673759 Z"/>
    <path fill-opacity=".3" d="M-6.57252031e-14,6.49078416 C2.52823339,2.58766618 6.9579226,-4.92939023e-14 12,-4.92939023e-14 C17.0420774,-4.92939023e-14 21.4717666,2.58766618 24,6.49078416 L22.8464581,7.62924463 C20.6358059,3.9974457 16.6054489,1.56737589 12,1.56737589 C7.39455107,1.56737589 3.36419411,3.9974457 1.15354188,7.62924463 L-6.57252031e-14,6.49078416 L-6.57252031e-14,6.49078416 Z"/>
  </g>
</svg>
