<svg xmlns="http://www.w3.org/2000/svg" width="28" height="28" viewBox="0 0 28 28">
  <path fill="#FFF" fill-rule="evenodd" d="M14.0209922,16.9716312 C15.7077327,16.9716312 17.0751061,18.3211275 17.0751061,19.9858156 C17.0751061,21.6505037 15.7077327,23 14.0209922,23 C12.3342517,23 10.9668783,21.6505037 10.9668783,19.9858156 C10.9668783,18.3211275 12.3342517,16.9716312 14.0209922,16.9716312 Z M14.0209922,13.1737589 C17.0641059,13.1737589 19.6472579,15.1173417 20.5655326,17.8153448 L19.2604712,19.1046521 C18.8358725,16.6276382 16.6516591,14.7411348 14.0209922,14.7411348 C11.3907527,14.7411348 9.20682159,16.6270253 8.78172031,19.103445 L7.47686141,17.8141418 C8.39549443,15.116764 10.9783309,13.1737589 14.0209922,13.1737589 Z M14.0209922,9.55673759 C18.0566609,9.55673759 21.5639468,11.789436 23.3438662,15.0715244 L22.1614033,16.2411734 C20.7314689,13.2185829 17.6240655,11.1241135 14.0209922,11.1241135 C10.418398,11.1241135 7.31134196,13.2180259 5.8811517,16.2399676 L4.69811822,15.0715244 C6.4780376,11.789436 9.98532354,9.55673759 14.0209922,9.55673759 Z M14,6 C19.0420774,6 23.4717666,8.58766618 26,12.4907842 L24.8464581,13.6292446 C22.6358059,9.9974457 18.6054489,7.56737589 14,7.56737589 C9.39455107,7.56737589 5.36419411,9.9974457 3.15354188,13.6292446 L2,12.4907842 C4.52823339,8.58766618 8.9579226,6 14,6 Z" opacity=".3"/>
</svg>
